<?xml version="1.0" standalone="no"?>
<!DOCTYPE svg PUBLIC "-//W3C//DTD SVG 20010904//EN"
 "http://www.w3.org/TR/2001/REC-SVG-20010904/DTD/svg10.dtd">
<svg version="1.0" xmlns="http://www.w3.org/2000/svg"
 width="300.000000pt" height="114.000000pt" viewBox="0 0 300.000000 114.000000"
 preserveAspectRatio="xMidYMid meet">
<metadata>
Created by potrace 1.10, written by Peter Selinger 2001-2011
</metadata>
<g transform="translate(0.000000,114.000000) scale(0.100000,-0.100000)"
fill="#ffffff" stroke="none">
<path d="M438 1051 c-54 -63 -87 -133 -112 -234 -25 -102 -43 -142 -75 -171
-17 -15 -21 -16 -21 -4 0 22 38 128 55 155 34 51 9 57 -58 12 -160 -106 -218
-409 -116 -610 47 -95 135 -150 266 -169 126 -17 215 11 298 95 60 60 98 132
125 239 24 94 25 165 5 232 -18 60 -75 130 -97 121 -14 -5 -14 -10 -2 -44 18
-52 17 -109 -3 -174 l-17 -54 -7 80 c-9 95 -32 161 -97 275 -57 100 -73 144
-81 224 -3 33 -11 61 -17 63 -7 2 -27 -14 -46 -36z m35 -81 c6 -51 20 -84 101
-232 71 -131 91 -261 53 -345 -17 -38 6 -53 38 -23 46 43 85 136 86 204 l1 61
15 -35 c31 -72 12 -229 -42 -344 -75 -159 -221 -226 -394 -182 -147 38 -216
131 -236 321 -12 106 27 242 94 333 38 52 50 49 28 -7 -9 -21 -19 -62 -23 -90
-6 -46 -5 -51 12 -51 49 0 144 122 144 186 0 58 84 254 109 254 4 0 11 -22 14
-50z"/>
<path d="M392 623 c-5 -10 -8 -22 -6 -28 2 -5 -30 -32 -70 -60 -56 -38 -82
-49 -104 -47 -23 3 -33 -2 -42 -18 -10 -19 -5 -32 41 -101 45 -69 56 -80 77
-77 16 2 32 14 42 32 9 16 21 31 27 33 7 3 44 -44 83 -102 68 -101 73 -106
103 -103 24 2 34 9 41 31 9 25 3 38 -63 133 -77 112 -79 123 -20 124 63 0 63
44 0 130 -51 70 -90 89 -109 53z m83 -75 c47 -72 50 -78 37 -78 -9 0 -92 120
-92 133 0 20 19 1 55 -55z m-47 -25 c10 -16 22 -33 25 -40 6 -9 -71 -72 -129
-106 -10 -6 -71 70 -62 78 11 11 134 94 140 94 4 1 15 -11 26 -26z m-170 -127
c43 -65 48 -76 33 -76 -9 0 -91 120 -91 133 0 19 19 0 58 -57z m235 -97 c60
-90 72 -119 48 -119 -14 0 -143 198 -137 209 4 6 10 11 14 11 4 -1 37 -46 75
-101z"/>
<path d="M220 241 c0 -32 44 -85 90 -109 52 -26 150 -32 150 -8 0 9 -19 16
-58 20 -72 8 -119 36 -138 81 -15 37 -44 48 -44 16z"/>
<path d="M1615 899 c-32 -18 -45 -40 -45 -75 0 -69 78 -107 133 -64 52 41 29
134 -38 145 -16 3 -39 0 -50 -6z m73 -71 c6 -47 -59 -62 -73 -17 -9 27 13 51
44 47 20 -2 27 -9 29 -30z"/>
<path d="M2160 769 l0 -120 -32 22 c-102 73 -281 -3 -318 -136 -20 -70 -9
-165 23 -214 101 -152 361 -140 441 20 l26 53 0 248 0 248 -70 0 -70 0 0 -121z
m98 -147 c3 -234 0 -253 -47 -306 -79 -90 -275 -78 -341 22 -22 32 -25 48 -25
119 0 67 4 87 21 109 64 86 151 114 238 75 l47 -20 25 24 c21 21 24 33 24 103
0 80 10 105 40 100 13 -3 15 -36 18 -226z"/>
<path d="M1992 595 c-39 -17 -80 -69 -88 -111 -9 -50 11 -108 47 -138 38 -32
67 -40 127 -33 118 13 160 171 68 256 -32 30 -112 43 -154 26z m113 -39 c40
-17 62 -72 51 -129 -11 -60 -74 -93 -143 -75 -88 23 -101 162 -19 202 39 19
67 20 111 2z"/>
<path d="M2360 800 c0 -3 43 -68 95 -144 l95 -138 -82 -122 c-45 -66 -90 -132
-100 -145 -10 -13 -18 -26 -18 -30 0 -3 37 -5 83 -3 l83 3 55 84 c30 46 57 84
60 84 3 1 31 -37 62 -83 l56 -84 83 -4 c46 -2 84 -3 86 -2 1 1 -43 68 -98 148
-56 81 -100 152 -97 159 3 7 46 72 96 146 50 74 90 134 89 135 -2 1 -40 0 -86
-2 l-83 -4 -53 -80 -54 -79 -53 80 -54 80 -83 3 c-45 2 -82 1 -82 -2z m156
-62 c11 -13 31 -40 44 -60 29 -44 60 -63 89 -53 11 3 42 35 67 71 38 54 50 64
75 64 16 0 29 -5 29 -10 0 -6 -27 -51 -60 -101 -34 -49 -65 -99 -69 -112 -10
-27 6 -60 83 -175 31 -45 56 -87 56 -93 0 -6 -14 -9 -32 -7 -27 2 -39 13 -73
62 -47 69 -84 100 -108 90 -10 -3 -39 -36 -65 -73 -54 -78 -58 -81 -96 -81
-34 0 -33 6 27 92 59 85 97 152 97 170 0 8 -31 63 -70 121 -38 58 -70 108 -70
111 0 16 59 3 76 -16z"/>
<path d="M1010 510 l0 -290 180 0 c160 0 185 2 219 20 99 50 131 175 63 248
l-28 30 20 28 c15 21 21 44 21 85 0 49 -5 63 -30 95 -56 68 -78 74 -272 74
l-173 0 0 -290z m385 220 c58 -54 66 -104 32 -181 -15 -35 -15 -37 10 -74 36
-54 40 -102 11 -144 -43 -65 -69 -72 -234 -72 -80 1 -150 4 -155 7 -11 6 -12
477 -2 488 4 4 76 6 160 4 146 -3 152 -4 178 -28z"/>
<path d="M1143 688 c-33 -36 -34 -97 -3 -128 17 -17 33 -20 102 -20 75 0 84 2
110 27 39 38 38 83 -3 117 -27 23 -39 26 -108 26 -68 0 -80 -3 -98 -22z m191
-34 c19 -19 20 -35 3 -57 -10 -14 -30 -18 -97 -20 l-85 -2 -3 48 -3 47 85 0
c64 0 88 -4 100 -16z"/>
<path d="M1142 457 c-31 -33 -30 -96 1 -125 20 -19 35 -22 109 -22 78 0 89 2
117 26 23 19 31 34 31 57 -1 65 -40 87 -153 87 -74 0 -86 -3 -105 -23z m218
-36 c14 -27 13 -37 -6 -55 -12 -12 -37 -16 -110 -16 l-94 0 0 45 0 45 100 0
c88 0 100 -2 110 -19z"/>
<path d="M1580 460 l0 -240 70 0 70 0 0 240 0 240 -70 0 -70 0 0 -240z m92
187 c10 -10 12 -56 10 -201 l-3 -187 -27 3 -27 3 -3 189 c-2 145 1 191 10 198
18 11 25 10 40 -5z"/>
</g>
</svg>
