<?xml version="1.0" standalone="no"?>
<!DOCTYPE svg PUBLIC "-//W3C//DTD SVG 20010904//EN"
 "http://www.w3.org/TR/2001/REC-SVG-20010904/DTD/svg10.dtd">
<svg version="1.0" xmlns="http://www.w3.org/2000/svg"
 width="300.000000pt" height="114.000000pt" viewBox="0 0 300.000000 114.000000"
 preserveAspectRatio="xMidYMid meet">
<metadata>
Created by potrace 1.10, written by Peter Selinger 2001-2011
</metadata>
<g transform="translate(0.000000,114.000000) scale(0.050000,-0.050000)"
fill="#000000" stroke="none">
<path d="M871 2099 c-99 -111 -202 -329 -230 -492 -29 -166 -181 -446 -181
-334 0 45 67 242 105 312 77 138 -30 126 -180 -20 -334 -327 -363 -1010 -55
-1318 176 -175 531 -248 785 -160 449 155 690 959 388 1293 -98 108 -137 87
-90 -48 35 -105 29 -258 -15 -362 -24 -58 -26 -54 -39 90 -16 167 -82 359
-176 512 -108 176 -166 324 -180 462 -16 162 -36 171 -132 65z m83 -203 c15
-77 65 -191 135 -314 184 -323 234 -525 180 -731 -37 -144 -15 -183 63 -110
84 79 153 236 168 379 17 175 60 88 60 -123 0 -635 -490 -1040 -991 -818 -413
182 -513 834 -197 1268 83 113 100 112 59 -5 -93 -263 -48 -352 107 -212 97
88 128 153 181 382 40 170 171 445 199 417 6 -6 22 -66 36 -133z"/>
<path d="M779 1238 c-12 -23 -17 -46 -11 -53 26 -26 -278 -211 -342 -208 -81
5 -120 -53 -84 -122 122 -229 276 -349 310 -240 43 139 63 130 225 -105 125
-181 153 -210 200 -210 147 0 136 103 -35 340 -149 205 -153 240 -30 240 130
0 128 63 -12 267 -99 145 -175 177 -221 91z m181 -158 c44 -65 72 -123 62
-129 -16 -10 -182 223 -182 257 0 31 43 -15 120 -128z m-105 -35 c21 -30 44
-66 52 -78 11 -20 -119 -126 -260 -212 -13 -9 -44 19 -77 68 -43 66 -49 86
-27 98 15 9 77 52 137 96 134 97 128 96 175 28z m-336 -264 c44 -64 74 -122
67 -128 -13 -13 -186 222 -186 252 0 34 41 -9 119 -124z m461 -180 c127 -194
141 -224 106 -236 -27 -9 -292 389 -277 414 24 38 40 22 171 -178z"/>
<path d="M440 477 c0 -125 192 -256 376 -257 148 0 144 60 -4 72 -133 10 -231
65 -278 154 -42 81 -94 98 -94 31z"/>
<path d="M3226 1801 c-143 -60 -103 -288 54 -313 107 -17 180 48 180 160 0
127 -115 202 -234 153z"/>
<path d="M4320 1539 l0 -242 -62 44 c-366 261 -850 -308 -593 -697 203 -307
717 -286 880 35 l55 108 0 497 0 496 -140 0 -140 0 0 -241z m-111 -427 c80
-34 124 -144 103 -257 -45 -243 -432 -200 -432 47 0 190 149 285 329 210z"/>
<path d="M2020 1025 l0 -585 361 0 c443 0 510 23 607 214 57 113 21 295 -70
352 -33 21 -33 25 8 83 70 97 62 265 -17 363 -107 132 -155 145 -544 152
l-345 6 0 -585z m649 284 c91 -91 6 -159 -199 -159 l-160 0 -6 95 -6 95 169 0
c128 0 178 -8 202 -31z m46 -464 c76 -99 4 -145 -226 -145 l-189 0 0 87 c0 47
4 90 8 95 26 26 384 -6 407 -37z"/>
<path d="M4720 1606 c0 -10 86 -142 190 -294 l191 -276 -144 -213 c-79 -117
-169 -246 -200 -286 -70 -89 -74 -126 -12 -110 25 7 101 13 169 13 l123 0 107
170 c129 206 110 205 239 2 l107 -167 170 -9 c94 -5 173 -7 176 -5 3 2 -86
136 -197 297 -111 162 -198 305 -193 318 5 13 92 144 193 291 101 147 181 270
177 273 -3 2 -81 0 -172 -5 l-167 -10 -107 -160 -107 -160 -105 162 -105 163
-121 0 c-67 0 -142 6 -167 13 -25 6 -45 3 -45 -7z"/>
<path d="M3160 922 l0 -479 142 -6 c78 -4 143 -6 145 -4 2 2 0 220 -3 485 l-5
482 -140 0 -139 0 0 -478z"/>
</g>
</svg>
